<svg xmlns="http://www.w3.org/2000/svg" xmlns:xlink="http://www.w3.org/1999/xlink" width="100" zoomAndPan="magnify" viewBox="0 0 75 74.999997" height="100" preserveAspectRatio="xMidYMid meet" version="1.0"><defs><g/><clipPath id="5c5d70e1c8"><path d="M 63 32 L 70.738281 32 L 70.738281 43 L 63 43 Z M 63 32 " clip-rule="nonzero"/></clipPath><clipPath id="048e958f90"><path d="M 30 60 L 45 60 L 45 70.738281 L 30 70.738281 Z M 30 60 " clip-rule="nonzero"/></clipPath></defs><rect x="-7.5" width="90" fill="#ffffff" y="-7.5" height="89.999996" fill-opacity="1"/><rect x="-7.5" width="90" fill="#2e2e2e" y="-7.5" height="89.999996" fill-opacity="1"/><path fill="#09abc8" d="M 48.847656 38.488281 L 56.054688 38.488281 C 55.914062 41.398438 55.101562 44.28125 53.59375 46.890625 C 50.984375 51.40625 46.628906 54.492188 41.664062 55.617188 C 46.058594 50.996094 48.628906 44.90625 48.847656 38.488281 Z M 38.414062 38.488281 L 47.050781 38.488281 C 46.800781 45.257812 43.773438 51.707031 38.625 56.132812 C 38.554688 56.140625 38.484375 56.152344 38.414062 56.152344 Z M 27.960938 38.488281 L 36.617188 38.488281 L 36.617188 56.070312 C 36.546875 56.066406 36.476562 56.054688 36.40625 56.050781 C 31.257812 51.621094 28.210938 45.257812 27.960938 38.488281 Z M 18.949219 38.488281 L 26.164062 38.488281 C 26.382812 44.90625 28.949219 50.996094 33.34375 55.617188 C 28.382812 54.492188 24.023438 51.40625 21.414062 46.890625 C 19.910156 44.28125 19.089844 41.398438 18.949219 38.488281 Z M 41.664062 19.5625 C 46.628906 20.691406 50.984375 23.773438 53.59375 28.289062 C 55.101562 30.898438 55.914062 33.785156 56.054688 36.691406 L 48.847656 36.691406 C 48.621094 30.277344 46.058594 24.1875 41.664062 19.5625 Z M 33.34375 19.5625 C 28.953125 24.1875 26.382812 30.277344 26.164062 36.691406 L 18.949219 36.691406 C 19.089844 33.785156 19.910156 30.898438 21.414062 28.289062 C 24.023438 23.773438 28.382812 20.691406 33.34375 19.5625 Z M 36.617188 19.113281 L 36.617188 36.691406 L 27.960938 36.691406 C 28.210938 29.929688 31.257812 23.558594 36.40625 19.128906 C 36.476562 19.125 36.546875 19.117188 36.617188 19.113281 Z M 38.414062 19.015625 C 38.488281 19.019531 38.558594 19.027344 38.628906 19.035156 C 43.773438 23.460938 46.800781 29.929688 47.050781 36.691406 L 38.414062 36.691406 Z M 37.488281 17.199219 C 30.21875 17.207031 23.496094 21.09375 19.859375 27.394531 C 16.222656 33.703125 16.222656 41.480469 19.859375 47.785156 C 23.484375 54.054688 29.453125 57.933594 37.5 57.949219 C 45.554688 57.933594 51.523438 54.054688 55.148438 47.785156 C 58.785156 41.480469 58.785156 33.703125 55.148438 27.394531 C 51.507812 21.09375 44.789062 17.207031 37.519531 17.199219 C 37.515625 17.199219 37.503906 17.199219 37.5 17.199219 C 37.496094 17.199219 37.492188 17.199219 37.488281 17.199219 Z M 37.488281 17.199219 " fill-opacity="1" fill-rule="nonzero"/><path fill="#09abc8" d="M 11.9375 40.554688 L 13.5 40.554688 C 13.582031 40.554688 13.621094 40.621094 13.621094 40.769531 L 13.621094 41.613281 C 13.621094 41.761719 13.582031 41.828125 13.5 41.828125 L 11.9375 41.828125 C 11.855469 41.828125 11.816406 41.761719 11.816406 41.613281 L 11.816406 40.769531 C 11.816406 40.621094 11.855469 40.554688 11.9375 40.554688 Z M 8.707031 40.554688 L 10.265625 40.554688 C 10.351562 40.554688 10.390625 40.621094 10.390625 40.769531 L 10.390625 41.613281 C 10.390625 41.761719 10.351562 41.828125 10.265625 41.828125 L 8.707031 41.828125 C 8.621094 41.828125 8.582031 41.761719 8.582031 41.613281 L 8.582031 40.769531 C 8.582031 40.621094 8.621094 40.554688 8.707031 40.554688 Z M 5.472656 40.554688 L 7.035156 40.554688 C 7.117188 40.554688 7.15625 40.621094 7.15625 40.769531 L 7.15625 41.613281 C 7.15625 41.761719 7.117188 41.828125 7.035156 41.828125 L 5.472656 41.828125 C 5.390625 41.828125 5.351562 41.761719 5.351562 41.613281 L 5.351562 40.769531 C 5.351562 40.621094 5.390625 40.554688 5.472656 40.554688 Z M 10.496094 35.460938 L 13.15625 35.460938 C 13.476562 35.460938 13.621094 35.605469 13.621094 35.914062 L 13.621094 39.234375 C 13.621094 39.546875 13.476562 39.6875 13.15625 39.6875 L 10.496094 39.6875 C 10.175781 39.6875 10.03125 39.546875 10.03125 39.234375 L 10.03125 35.914062 C 10.03125 35.605469 10.175781 35.460938 10.496094 35.460938 Z M 5.816406 35.460938 L 8.476562 35.460938 C 8.796875 35.460938 8.941406 35.605469 8.941406 35.914062 L 8.941406 39.234375 C 8.941406 39.546875 8.796875 39.6875 8.476562 39.6875 L 5.816406 39.6875 C 5.496094 39.6875 5.351562 39.546875 5.351562 39.234375 L 5.351562 35.914062 C 5.351562 35.605469 5.496094 35.460938 5.816406 35.460938 Z M 11.9375 33.324219 L 13.5 33.324219 C 13.582031 33.324219 13.621094 33.390625 13.621094 33.539062 L 13.621094 34.382812 C 13.621094 34.527344 13.582031 34.597656 13.5 34.597656 L 11.9375 34.597656 C 11.855469 34.597656 11.816406 34.527344 11.816406 34.382812 L 11.816406 33.539062 C 11.816406 33.390625 11.855469 33.324219 11.9375 33.324219 Z M 8.707031 33.324219 L 10.265625 33.324219 C 10.351562 33.324219 10.390625 33.390625 10.390625 33.539062 L 10.390625 34.382812 C 10.390625 34.527344 10.351562 34.597656 10.265625 34.597656 L 8.707031 34.597656 C 8.621094 34.597656 8.582031 34.527344 8.582031 34.382812 L 8.582031 33.539062 C 8.582031 33.390625 8.621094 33.324219 8.707031 33.324219 Z M 5.472656 33.324219 L 7.035156 33.324219 C 7.117188 33.324219 7.15625 33.390625 7.15625 33.539062 L 7.15625 34.382812 C 7.15625 34.527344 7.117188 34.597656 7.035156 34.597656 L 5.472656 34.597656 C 5.390625 34.597656 5.351562 34.527344 5.351562 34.382812 L 5.351562 33.539062 C 5.351562 33.390625 5.390625 33.324219 5.472656 33.324219 Z M 5.195312 32.386719 C 4.386719 32.386719 4.019531 32.738281 4.019531 33.5 L 4.019531 41.648438 C 4.019531 42.414062 4.386719 42.765625 5.195312 42.765625 L 13.78125 42.765625 C 14.585938 42.765625 14.957031 42.414062 14.957031 41.648438 L 14.957031 33.5 C 14.957031 32.738281 14.585938 32.386719 13.78125 32.386719 Z M 5.195312 32.386719 " fill-opacity="1" fill-rule="nonzero"/><path fill="#09abc8" d="M 37.503906 4.089844 C 36.738281 4.089844 36.003906 4.390625 35.460938 4.9375 C 34.914062 5.476562 34.613281 6.210938 34.613281 6.980469 C 34.613281 7.859375 35.015625 8.699219 35.710938 9.246094 C 36.074219 9.644531 35.890625 9.960938 35.570312 10.085938 C 33.949219 10.441406 32.761719 11.710938 32.761719 13.460938 L 32.761719 13.832031 C 32.761719 14.242188 32.816406 14.46875 33.398438 14.46875 L 41.613281 14.46875 C 42.195312 14.46875 42.242188 14.242188 42.242188 13.832031 L 42.242188 13.460938 C 42.242188 11.710938 41.058594 10.4375 39.441406 10.085938 C 39.121094 9.960938 38.9375 9.648438 39.292969 9.253906 C 39.988281 8.707031 40.398438 7.867188 40.398438 6.980469 C 40.398438 6.210938 40.089844 5.476562 39.550781 4.9375 C 39.007812 4.390625 38.269531 4.089844 37.503906 4.089844 Z M 37.503906 4.089844 " fill-opacity="1" fill-rule="nonzero"/><g clip-path="url(#5c5d70e1c8)"><path fill="#09abc8" d="M 63.304688 37.921875 L 63.304688 42.152344 C 63.304688 42.265625 63.324219 42.257812 63.429688 42.292969 L 65.21875 42.84375 C 65.417969 42.902344 65.59375 42.914062 65.789062 42.914062 L 68.464844 42.914062 C 69.425781 42.914062 69.988281 42.683594 70.171875 41.757812 L 70.957031 37.800781 C 71.082031 37.1875 70.902344 36.164062 69.816406 36.164062 L 68.132812 36.164062 C 67.640625 36.164062 67.511719 35.910156 67.585938 35.546875 L 67.800781 34.464844 C 68.03125 33.296875 67.121094 32.246094 66.480469 32.238281 C 65.839844 32.226562 65.996094 32.976562 65.804688 33.945312 C 65.613281 34.917969 64.136719 36.738281 63.796875 37.15625 L 63.367188 37.726562 C 63.308594 37.796875 63.304688 37.835938 63.304688 37.921875 Z M 63.304688 37.921875 " fill-opacity="1" fill-rule="nonzero"/></g><path fill="#09abc8" d="M 60.953125 42.375 C 60.640625 42.375 60.390625 42.21875 60.390625 41.917969 L 60.390625 38.136719 C 60.390625 37.835938 60.640625 37.683594 60.953125 37.683594 L 61.902344 37.683594 C 62.210938 37.683594 62.460938 37.835938 62.460938 38.136719 L 62.460938 41.917969 C 62.460938 42.214844 62.210938 42.375 61.902344 42.375 Z M 60.953125 42.375 " fill-opacity="1" fill-rule="nonzero"/><g clip-path="url(#048e958f90)"><path fill="#09abc8" d="M 39.238281 63.347656 C 39.5 63.347656 39.769531 63.449219 39.890625 63.671875 L 42.261719 68.042969 C 42.582031 68.636719 42.476562 69.378906 41.648438 69.375 L 33.128906 69.375 C 32.546875 69.375 32.472656 68.847656 32.703125 68.429688 L 34.382812 65.328125 C 34.46875 65.171875 34.660156 65.101562 34.84375 65.101562 C 35.023438 65.101562 35.222656 65.171875 35.304688 65.332031 L 36.863281 68.214844 C 37.136719 68.742188 37.933594 68.328125 37.652344 67.796875 L 37.011719 66.574219 L 38.589844 63.671875 C 38.710938 63.449219 38.984375 63.347656 39.238281 63.347656 Z M 36.347656 62.15625 C 36.910156 62.15625 37.363281 62.605469 37.363281 63.164062 C 37.363281 63.726562 36.910156 64.175781 36.347656 64.175781 C 35.792969 64.175781 35.339844 63.722656 35.339844 63.164062 C 35.339844 62.605469 35.792969 62.15625 36.347656 62.15625 Z M 32.355469 60.683594 C 31.574219 60.683594 30.949219 61.332031 30.949219 62.132812 L 30.949219 69.617188 C 30.949219 70.417969 31.574219 71.0625 32.355469 71.0625 L 42.65625 71.0625 C 43.4375 71.0625 44.0625 70.417969 44.0625 69.617188 L 44.0625 62.132812 C 44.0625 61.332031 43.4375 60.683594 42.65625 60.683594 Z M 32.355469 60.683594 " fill-opacity="1" fill-rule="nonzero"/></g><path fill="#09abc8" d="M 55.515625 53.652344 C 54.332031 55.078125 54.257812 57.445312 55.863281 59.054688 C 55.871094 59.0625 55.878906 59.074219 55.890625 59.082031 L 60.117188 62.71875 C 60.292969 62.871094 60.554688 62.871094 60.734375 62.71875 L 64.957031 59.082031 C 64.96875 59.074219 64.980469 59.066406 64.988281 59.054688 C 66.589844 57.445312 66.519531 55.078125 65.335938 53.652344 C 64.695312 52.886719 63.714844 52.433594 62.703125 52.457031 C 61.867188 52.472656 61.058594 52.9375 60.421875 53.703125 C 59.785156 52.9375 58.980469 52.476562 58.058594 52.457031 C 57.132812 52.433594 56.152344 52.886719 55.515625 53.652344 Z M 55.515625 53.652344 " fill-opacity="1" fill-rule="nonzero"/><path fill="#09abc8" d="M 14.472656 52.453125 C 13.972656 52.453125 13.828125 52.933594 13.574219 53.382812 L 13.414062 53.652344 L 10.53125 53.652344 C 9.765625 53.652344 9.152344 54.289062 9.152344 55.074219 L 9.152344 61.410156 C 9.152344 62.199219 9.765625 62.835938 10.53125 62.835938 L 20.621094 62.835938 C 21.382812 62.835938 21.996094 62.199219 21.996094 61.410156 L 21.996094 55.074219 C 21.996094 54.289062 21.382812 53.652344 20.621094 53.652344 L 17.734375 53.652344 L 17.574219 53.382812 C 17.320312 52.933594 17.175781 52.453125 16.675781 52.453125 Z M 15.574219 55.851562 C 16.945312 55.851562 18.058594 56.964844 18.058594 58.335938 C 18.058594 59.710938 16.945312 60.824219 15.574219 60.824219 C 14.199219 60.824219 13.089844 59.710938 13.089844 58.335938 C 13.089844 56.964844 14.199219 55.851562 15.574219 55.851562 Z M 15.574219 55.851562 " fill-opacity="1" fill-rule="nonzero"/><path fill="#09abc8" d="M 18.113281 17.769531 C 17.554688 17.769531 17.105469 17.320312 17.105469 16.761719 C 17.105469 16.207031 17.554688 15.757812 18.113281 15.757812 C 18.667969 15.757812 19.117188 16.207031 19.117188 16.761719 C 19.117188 17.320312 18.667969 17.769531 18.113281 17.769531 Z M 15.179688 17.769531 C 14.621094 17.769531 14.167969 17.320312 14.167969 16.761719 C 14.167969 16.207031 14.621094 15.757812 15.179688 15.757812 C 15.734375 15.757812 16.1875 16.207031 16.1875 16.761719 C 16.1875 17.320312 15.734375 17.769531 15.179688 17.769531 Z M 12.246094 17.769531 C 11.6875 17.769531 11.242188 17.320312 11.242188 16.761719 C 11.242188 16.207031 11.6875 15.757812 12.246094 15.757812 C 12.800781 15.757812 13.253906 16.207031 13.253906 16.761719 C 13.253906 17.320312 12.800781 17.769531 12.246094 17.769531 Z M 18.921875 12.320312 L 11.433594 12.320312 C 10.167969 12.320312 9.152344 13.242188 9.152344 14.484375 L 9.152344 19.097656 C 9.152344 20.335938 10.167969 21.289062 11.433594 21.289062 L 12.179688 21.289062 L 12.542969 22.359375 C 12.664062 22.691406 13.148438 22.808594 13.410156 22.578125 L 14.894531 21.289062 L 18.925781 21.289062 C 20.191406 21.289062 21.222656 20.335938 21.222656 19.097656 L 21.222656 14.484375 C 21.222656 13.242188 20.191406 12.320312 18.921875 12.320312 Z M 18.921875 12.320312 " fill-opacity="1" fill-rule="nonzero"/><path fill="#09abc8" d="M 63.527344 13.285156 C 63.914062 13.242188 64.402344 14.648438 64.605469 16.433594 C 64.816406 18.222656 64.671875 19.703125 64.285156 19.75 C 63.996094 19.785156 63.644531 19.003906 63.394531 17.785156 C 63.859375 17.535156 64.125 17.027344 64.0625 16.5 C 64 15.972656 63.625 15.542969 63.113281 15.40625 C 63.078125 14.160156 63.238281 13.320312 63.527344 13.285156 Z M 63.746094 11.894531 C 63.425781 11.914062 63.128906 12.011719 62.910156 12.160156 C 61.71875 12.996094 60.066406 13.808594 58.5 14.261719 C 58.3125 16.179688 58.644531 18.402344 59.339844 19.976562 C 60.929688 20.0625 62.652344 20.441406 63.949219 20.984375 C 64.285156 21.125 64.472656 21.09375 64.828125 21.050781 C 65.558594 20.96875 65.886719 18.859375 65.589844 16.320312 C 65.289062 13.785156 64.484375 11.839844 63.746094 11.894531 Z M 63.746094 11.894531 " fill-opacity="1" fill-rule="evenodd"/><path fill="#09abc8" d="M 57.71875 14.453125 C 57.386719 14.53125 57.054688 14.582031 56.746094 14.613281 L 55.046875 14.808594 C 54.1875 14.894531 53.625 16.304688 53.757812 17.710938 C 53.957031 19.109375 54.828125 20.347656 55.6875 20.234375 L 56.117188 20.179688 L 57.296875 23.140625 C 57.402344 23.402344 57.625 23.523438 57.921875 23.488281 L 59.699219 23.277344 C 60.117188 23.230469 60.25 22.921875 60.113281 22.574219 L 59.75 21.667969 C 59.664062 21.445312 59.5625 21.363281 59.355469 21.21875 L 58.886719 20.894531 C 57.878906 18.578125 57.578125 16.441406 57.71875 14.453125 Z M 57.71875 14.453125 " fill-opacity="1" fill-rule="evenodd"/><g fill="#2e2e2e" fill-opacity="1"><g transform="translate(68.963645, 70.849995)"><g><path d="M 0.203125 0 L 0.203125 -0.28125 L 0.984375 -0.28125 L 0.984375 -2.46875 L 0.9375 -2.46875 C 0.8125 -2.40625 0.703125 -2.359375 0.609375 -2.328125 C 0.515625 -2.296875 0.390625 -2.265625 0.234375 -2.234375 L 0.234375 -2.546875 C 0.390625 -2.578125 0.535156 -2.617188 0.671875 -2.671875 C 0.816406 -2.722656 0.945312 -2.785156 1.0625 -2.859375 L 1.3125 -2.859375 L 1.3125 -0.28125 L 2.015625 -0.28125 L 2.015625 0 Z M 0.203125 0 "/></g></g></g></svg>