<svg xmlns="http://www.w3.org/2000/svg" xmlns:xlink="http://www.w3.org/1999/xlink" width="100" zoomAndPan="magnify" viewBox="0 0 75 74.999997" height="100" preserveAspectRatio="xMidYMid meet" version="1.0"><defs><g/><clipPath id="01511042ae"><path d="M 4.855469 3.3125 L 70.855469 3.3125 L 70.855469 71.5625 L 4.855469 71.5625 Z M 4.855469 3.3125 " clip-rule="nonzero"/></clipPath></defs><rect x="-7.5" width="90" fill="#ffffff" y="-7.5" height="89.999996" fill-opacity="1"/><rect x="-7.5" width="90" fill="#2e2e2e" y="-7.5" height="89.999996" fill-opacity="1"/><g clip-path="url(#01511042ae)"><path fill="#09abc8" d="M 25.460938 48.390625 L 68.011719 48.390625 C 69.707031 48.390625 71.089844 49.773438 71.089844 51.46875 L 71.089844 68.558594 C 71.089844 70.253906 69.707031 71.636719 68.011719 71.636719 L 25.460938 71.636719 C 23.765625 71.636719 22.382812 70.253906 22.382812 68.558594 L 22.382812 51.46875 C 22.382812 49.773438 23.765625 48.390625 25.460938 48.390625 Z M 48.417969 5.378906 C 47.886719 5.265625 47.550781 4.746094 47.664062 4.21875 C 47.773438 3.691406 48.292969 3.351562 48.824219 3.464844 L 54.429688 4.652344 C 54.957031 4.765625 55.296875 5.285156 55.183594 5.8125 C 55.175781 5.855469 55.164062 5.894531 55.148438 5.933594 L 53.382812 11.363281 C 53.214844 11.875 52.664062 12.15625 52.148438 11.992188 C 51.636719 11.824219 51.355469 11.273438 51.523438 10.757812 L 52.507812 7.730469 L 8.070312 33.386719 C 7.601562 33.652344 7.007812 33.492188 6.738281 33.027344 C 6.46875 32.558594 6.628906 31.960938 7.097656 31.691406 L 51.53125 6.039062 Z M 14.132812 61.46875 L 14.132812 46.109375 L 5.691406 46.109375 C 5.230469 46.109375 4.855469 46.484375 4.855469 46.941406 L 4.855469 60.632812 C 4.855469 61.089844 5.230469 61.46875 5.691406 61.46875 Z M 59.082031 46.429688 L 59.082031 19.3125 C 59.082031 18.855469 58.707031 18.476562 58.25 18.476562 L 50.640625 18.476562 C 50.183594 18.476562 49.804688 18.855469 49.804688 19.3125 L 49.804688 46.429688 Z M 47.847656 46.429688 L 47.847656 25.054688 L 39.402344 25.054688 C 38.945312 25.054688 38.570312 25.429688 38.570312 25.890625 L 38.570312 46.429688 Z M 36.609375 46.429688 L 36.609375 31.632812 L 28.164062 31.632812 C 27.707031 31.632812 27.332031 32.007812 27.332031 32.46875 L 27.332031 46.429688 Z M 16.09375 61.46875 L 20.421875 61.46875 L 20.421875 51.46875 C 20.421875 48.722656 22.632812 46.480469 25.371094 46.433594 L 25.371094 39.855469 L 16.925781 39.855469 C 16.46875 39.855469 16.09375 40.230469 16.09375 40.691406 Z M 51.527344 66.296875 L 42.925781 66.296875 L 42.925781 60.992188 L 49.59375 60.992188 C 50.136719 60.992188 50.574219 60.554688 50.574219 60.011719 C 50.574219 59.472656 50.136719 59.035156 49.59375 59.035156 L 42.925781 59.035156 L 42.925781 53.730469 L 51.527344 53.730469 C 52.070312 53.730469 52.507812 53.289062 52.507812 52.75 C 52.507812 52.207031 52.070312 51.769531 51.527344 51.769531 L 41.945312 51.769531 C 41.402344 51.769531 40.964844 52.207031 40.964844 52.75 L 40.964844 67.277344 C 40.964844 67.820312 41.402344 68.257812 41.945312 68.257812 L 51.527344 68.257812 C 52.070312 68.257812 52.507812 67.820312 52.507812 67.277344 C 52.507812 66.738281 52.070312 66.296875 51.527344 66.296875 Z M 38.054688 56.148438 C 38.054688 54.945312 37.5625 53.847656 36.769531 53.054688 C 35.976562 52.261719 34.882812 51.769531 33.675781 51.769531 L 30.894531 51.769531 C 29.6875 51.769531 28.59375 52.261719 27.800781 53.054688 C 27.007812 53.847656 26.511719 54.945312 26.511719 56.148438 L 26.511719 57.128906 C 26.511719 58.195312 26.949219 59.160156 27.648438 59.859375 C 28.347656 60.558594 29.3125 60.992188 30.378906 60.992188 L 34.191406 60.992188 C 34.714844 60.992188 35.191406 61.207031 35.535156 61.554688 C 35.882812 61.898438 36.097656 62.375 36.097656 62.898438 L 36.097656 63.878906 C 36.097656 64.542969 35.824219 65.148438 35.382812 65.585938 C 34.945312 66.023438 34.339844 66.296875 33.675781 66.296875 L 30.894531 66.296875 C 30.230469 66.296875 29.625 66.023438 29.183594 65.585938 C 28.746094 65.148438 28.472656 64.542969 28.472656 63.878906 C 28.472656 63.335938 28.035156 62.898438 27.492188 62.898438 C 26.953125 62.898438 26.511719 63.335938 26.511719 63.878906 C 26.511719 65.082031 27.007812 66.179688 27.800781 66.972656 C 28.59375 67.765625 29.6875 68.257812 30.894531 68.257812 L 33.675781 68.257812 C 34.882812 68.257812 35.976562 67.765625 36.769531 66.972656 C 37.5625 66.179688 38.054688 65.082031 38.054688 63.878906 L 38.054688 62.898438 C 38.054688 61.832031 37.621094 60.867188 36.921875 60.167969 C 36.222656 59.46875 35.257812 59.035156 34.191406 59.035156 L 30.378906 59.035156 C 29.855469 59.035156 29.378906 58.820312 29.035156 58.472656 C 28.6875 58.128906 28.472656 57.652344 28.472656 57.128906 L 28.472656 56.148438 C 28.472656 55.484375 28.746094 54.878906 29.183594 54.441406 C 29.625 54.003906 30.230469 53.730469 30.894531 53.730469 L 33.675781 53.730469 C 34.339844 53.730469 34.945312 54.003906 35.382812 54.441406 C 35.824219 54.878906 36.097656 55.484375 36.097656 56.148438 C 36.097656 56.691406 36.535156 57.128906 37.078125 57.128906 C 37.617188 57.128906 38.054688 56.691406 38.054688 56.148438 Z M 59.796875 51.769531 C 58.589844 51.769531 57.496094 52.261719 56.703125 53.054688 C 55.910156 53.847656 55.417969 54.945312 55.417969 56.148438 L 55.417969 63.878906 C 55.417969 65.082031 55.910156 66.179688 56.703125 66.972656 C 57.496094 67.765625 58.589844 68.257812 59.796875 68.257812 L 62.578125 68.257812 C 63.785156 68.257812 64.878906 67.765625 65.671875 66.972656 C 66.464844 66.179688 66.960938 65.082031 66.960938 63.878906 L 66.960938 56.148438 C 66.960938 54.945312 66.464844 53.847656 65.671875 53.054688 C 64.878906 52.261719 63.785156 51.769531 62.578125 51.769531 Z M 62.578125 53.730469 L 59.796875 53.730469 C 59.132812 53.730469 58.527344 54.003906 58.089844 54.441406 C 57.648438 54.878906 57.375 55.484375 57.375 56.148438 L 57.375 63.878906 C 57.375 64.542969 57.648438 65.148438 58.089844 65.585938 C 58.527344 66.023438 59.132812 66.296875 59.796875 66.296875 L 62.578125 66.296875 C 63.242188 66.296875 63.847656 66.023438 64.289062 65.585938 C 64.726562 65.148438 65 64.542969 65 63.878906 L 65 56.148438 C 65 55.484375 64.726562 54.878906 64.289062 54.441406 C 63.847656 54.003906 63.242188 53.730469 62.578125 53.730469 Z M 62.578125 53.730469 " fill-opacity="1" fill-rule="evenodd"/></g><g fill="#2e2e2e" fill-opacity="1"><g transform="translate(71.091771, 72.810821)"><g><path d="M 0.203125 0 L 0.203125 -0.28125 L 0.984375 -0.28125 L 0.984375 -2.46875 L 0.9375 -2.46875 C 0.8125 -2.40625 0.703125 -2.359375 0.609375 -2.328125 C 0.515625 -2.296875 0.390625 -2.265625 0.234375 -2.234375 L 0.234375 -2.546875 C 0.390625 -2.578125 0.535156 -2.617188 0.671875 -2.671875 C 0.816406 -2.722656 0.945312 -2.785156 1.0625 -2.859375 L 1.3125 -2.859375 L 1.3125 -0.28125 L 2.015625 -0.28125 L 2.015625 0 Z M 0.203125 0 "/></g></g></g></svg>