<svg xmlns="http://www.w3.org/2000/svg" xmlns:xlink="http://www.w3.org/1999/xlink" width="100" zoomAndPan="magnify" viewBox="0 0 75 74.999997" height="100" preserveAspectRatio="xMidYMid meet" version="1.0"><defs><g/><clipPath id="977164a74b"><path d="M 4.820312 4.695312 L 70.820312 4.695312 L 70.820312 69.945312 L 4.820312 69.945312 Z M 4.820312 4.695312 " clip-rule="nonzero"/></clipPath></defs><rect x="-7.5" width="90" fill="#ffffff" y="-7.5" height="89.999996" fill-opacity="1"/><rect x="-7.5" width="90" fill="#2e2e2e" y="-7.5" height="89.999996" fill-opacity="1"/><g clip-path="url(#977164a74b)"><path fill="#09abc8" d="M 44.992188 30.3125 C 52.472656 30.3125 58.535156 36.378906 58.535156 43.859375 C 58.535156 51.335938 52.472656 57.402344 44.992188 57.402344 C 37.511719 57.402344 31.449219 51.335938 31.449219 43.859375 C 31.449219 36.378906 37.511719 30.3125 44.992188 30.3125 Z M 55.304688 55.621094 L 57.941406 58.207031 L 57.800781 58.351562 C 57.328125 58.839844 57.339844 59.621094 57.828125 60.09375 L 65.265625 67.3125 C 65.75 67.78125 66.535156 67.769531 67.007812 67.285156 L 69.691406 64.515625 C 70.164062 64.03125 70.152344 63.246094 69.664062 62.777344 L 62.226562 55.558594 C 61.742188 55.085938 60.957031 55.097656 60.488281 55.585938 L 60.324219 55.753906 L 57.617188 53.101562 C 56.9375 54.023438 56.164062 54.867188 55.304688 55.621094 Z M 17.523438 5.109375 C 10.417969 5.644531 4.820312 11.582031 4.820312 18.824219 C 4.820312 26.421875 10.976562 32.578125 18.574219 32.578125 C 20.707031 32.578125 22.730469 32.09375 24.53125 31.226562 L 17.703125 19.414062 C 17.589844 19.246094 17.523438 19.042969 17.523438 18.824219 Z M 49.371094 58.882812 L 49.371094 68.972656 C 49.371094 69.695312 48.78125 70.285156 48.054688 70.285156 C 46.597656 70.285156 45.144531 70.285156 43.6875 70.285156 C 42.964844 70.285156 42.371094 69.695312 42.371094 68.972656 L 42.371094 59.285156 C 43.222656 59.429688 44.097656 59.503906 44.992188 59.503906 C 46.511719 59.503906 47.980469 59.289062 49.371094 58.882812 Z M 49.6875 11.214844 C 49.105469 11.214844 48.636719 10.742188 48.636719 10.160156 C 48.636719 9.582031 49.105469 9.109375 49.6875 9.109375 L 59.863281 9.109375 C 60.445312 9.109375 60.914062 9.582031 60.914062 10.160156 C 60.914062 10.742188 60.445312 11.214844 59.863281 11.214844 Z M 40.324219 26.433594 L 43.871094 26.433594 C 44.6875 26.433594 45.351562 27.097656 45.351562 27.914062 L 45.351562 28.214844 C 45.230469 28.210938 45.113281 28.210938 44.992188 28.210938 C 42.808594 28.210938 40.730469 28.65625 38.84375 29.464844 L 38.84375 27.914062 C 38.84375 27.097656 39.507812 26.433594 40.324219 26.433594 Z M 53.671875 30.839844 C 54.585938 31.449219 55.433594 32.15625 56.199219 32.941406 L 59.863281 32.941406 C 60.445312 32.941406 60.914062 32.472656 60.914062 31.890625 C 60.914062 31.308594 60.445312 30.839844 59.863281 30.839844 Z M 49.6875 28.539062 C 49.105469 28.539062 48.636719 28.066406 48.636719 27.484375 C 48.636719 26.90625 49.105469 26.433594 49.6875 26.433594 L 70.039062 26.433594 C 70.617188 26.433594 71.089844 26.90625 71.089844 27.484375 C 71.089844 28.066406 70.617188 28.539062 70.039062 28.539062 Z M 40.324219 15.570312 L 43.871094 15.570312 C 44.6875 15.570312 45.351562 16.234375 45.351562 17.050781 L 45.351562 20.597656 C 45.351562 21.414062 44.6875 22.078125 43.871094 22.078125 L 40.324219 22.078125 C 39.507812 22.078125 38.84375 21.414062 38.84375 20.597656 L 38.84375 17.050781 C 38.84375 16.234375 39.507812 15.570312 40.324219 15.570312 Z M 49.6875 22.078125 C 49.105469 22.078125 48.636719 21.605469 48.636719 21.027344 C 48.636719 20.445312 49.105469 19.972656 49.6875 19.972656 L 59.863281 19.972656 C 60.445312 19.972656 60.914062 20.445312 60.914062 21.027344 C 60.914062 21.605469 60.445312 22.078125 59.863281 22.078125 Z M 49.6875 17.671875 C 49.105469 17.671875 48.636719 17.203125 48.636719 16.621094 C 48.636719 16.039062 49.105469 15.570312 49.6875 15.570312 L 70.039062 15.570312 C 70.617188 15.570312 71.089844 16.039062 71.089844 16.621094 C 71.089844 17.203125 70.617188 17.671875 70.039062 17.671875 Z M 40.324219 4.707031 L 43.871094 4.707031 C 44.6875 4.707031 45.351562 5.371094 45.351562 6.1875 L 45.351562 9.734375 C 45.351562 10.546875 44.6875 11.214844 43.871094 11.214844 L 40.324219 11.214844 C 39.507812 11.214844 38.84375 10.546875 38.84375 9.734375 L 38.84375 6.1875 C 38.84375 5.371094 39.507812 4.707031 40.324219 4.707031 Z M 49.6875 6.808594 C 49.105469 6.808594 48.636719 6.339844 48.636719 5.757812 C 48.636719 5.175781 49.105469 4.707031 49.6875 4.707031 L 70.039062 4.707031 C 70.617188 4.707031 71.089844 5.175781 71.089844 5.757812 C 71.089844 6.339844 70.617188 6.808594 70.039062 6.808594 Z M 36.671875 57.109375 C 33.957031 55.402344 31.804688 52.882812 30.550781 49.894531 C 30.039062 50.074219 29.671875 50.5625 29.671875 51.136719 C 29.671875 57.082031 29.671875 63.027344 29.671875 68.972656 C 29.671875 69.695312 30.261719 70.285156 30.988281 70.285156 C 32.445312 70.285156 33.898438 70.285156 35.355469 70.285156 C 36.078125 70.285156 36.671875 69.695312 36.671875 68.972656 Z M 18.289062 40.128906 C 19.742188 40.128906 21.199219 40.128906 22.65625 40.128906 C 23.378906 40.128906 23.96875 40.71875 23.96875 41.445312 C 23.96875 50.621094 23.96875 59.796875 23.96875 68.972656 C 23.96875 69.695312 23.378906 70.285156 22.65625 70.285156 C 21.199219 70.285156 19.742188 70.285156 18.289062 70.285156 C 17.5625 70.285156 16.972656 69.695312 16.972656 68.972656 C 16.972656 59.796875 16.972656 50.621094 16.972656 41.445312 C 16.972656 40.71875 17.5625 40.128906 18.289062 40.128906 Z M 6.136719 46.269531 C 7.589844 46.269531 9.046875 46.269531 10.503906 46.269531 C 11.226562 46.269531 11.816406 46.859375 11.816406 47.585938 C 11.816406 54.714844 11.816406 61.84375 11.816406 68.972656 C 11.816406 69.695312 11.226562 70.285156 10.503906 70.285156 C 9.046875 70.285156 7.589844 70.285156 6.136719 70.285156 C 5.410156 70.285156 4.820312 69.695312 4.820312 68.972656 C 4.820312 61.84375 4.820312 54.714844 4.820312 47.585938 C 4.820312 46.859375 5.410156 46.269531 6.136719 46.269531 Z M 26.347656 30.171875 L 20.394531 19.875 L 32.289062 19.875 C 31.964844 24.152344 29.6875 27.878906 26.347656 30.171875 Z M 32.289062 17.773438 L 19.625 17.773438 L 19.625 5.109375 C 26.382812 5.621094 31.777344 11.015625 32.289062 17.773438 Z M 44.992188 35.046875 C 42.558594 35.046875 40.355469 36.035156 38.761719 37.628906 C 37.167969 39.222656 36.179688 41.425781 36.179688 43.855469 C 36.179688 46.097656 37.019531 48.144531 38.398438 49.699219 C 39.253906 46.871094 41.882812 44.808594 44.992188 44.808594 C 48.101562 44.808594 50.730469 46.871094 51.585938 49.699219 C 52.964844 48.144531 53.800781 46.097656 53.800781 43.855469 C 53.800781 41.425781 52.816406 39.222656 51.222656 37.628906 C 49.625 36.035156 47.425781 35.046875 44.992188 35.046875 Z M 44.992188 37.324219 C 43.066406 37.324219 41.507812 38.882812 41.507812 40.804688 C 41.507812 42.730469 43.066406 44.289062 44.992188 44.289062 C 46.914062 44.289062 48.472656 42.730469 48.472656 40.804688 C 48.472656 38.882812 46.914062 37.324219 44.992188 37.324219 Z M 37.273438 36.140625 C 35.300781 38.113281 34.078125 40.84375 34.078125 43.855469 C 34.078125 46.871094 35.300781 49.597656 37.273438 51.574219 C 39.25 53.550781 41.976562 54.769531 44.992188 54.769531 C 48.003906 54.769531 50.734375 53.546875 52.707031 51.574219 C 54.683594 49.597656 55.90625 46.871094 55.90625 43.855469 C 55.90625 40.84375 54.683594 38.113281 52.707031 36.140625 C 50.734375 34.164062 48.003906 32.945312 44.992188 32.945312 C 41.976562 32.945312 39.25 34.164062 37.273438 36.140625 Z M 37.273438 36.140625 " fill-opacity="1" fill-rule="evenodd"/></g><g fill="#2e2e2e" fill-opacity="1"><g transform="translate(71.091771, 72.810821)"><g><path d="M 0.203125 0 L 0.203125 -0.28125 L 0.984375 -0.28125 L 0.984375 -2.46875 L 0.9375 -2.46875 C 0.8125 -2.40625 0.703125 -2.359375 0.609375 -2.328125 C 0.515625 -2.296875 0.390625 -2.265625 0.234375 -2.234375 L 0.234375 -2.546875 C 0.390625 -2.578125 0.535156 -2.617188 0.671875 -2.671875 C 0.816406 -2.722656 0.945312 -2.785156 1.0625 -2.859375 L 1.3125 -2.859375 L 1.3125 -0.28125 L 2.015625 -0.28125 L 2.015625 0 Z M 0.203125 0 "/></g></g></g></svg>