<svg xmlns="http://www.w3.org/2000/svg" xmlns:xlink="http://www.w3.org/1999/xlink" width="100" zoomAndPan="magnify" viewBox="0 0 75 74.999997" height="100" preserveAspectRatio="xMidYMid meet" version="1.0"><defs><g/><clipPath id="433526ade4"><path d="M 58 29 L 71.527344 29 L 71.527344 44 L 58 44 Z M 58 29 " clip-rule="nonzero"/></clipPath><clipPath id="ccbd747d01"><path d="M 45 55 L 67 55 L 67 70.394531 L 45 70.394531 Z M 45 55 " clip-rule="nonzero"/></clipPath><clipPath id="0240d1dde7"><path d="M 32 5.144531 L 49 5.144531 L 49 21 L 32 21 Z M 32 5.144531 " clip-rule="nonzero"/></clipPath><clipPath id="1a442a394b"><path d="M 4.027344 29 L 18 29 L 18 45 L 4.027344 45 Z M 4.027344 29 " clip-rule="nonzero"/></clipPath><clipPath id="5e186ee768"><path d="M 17 56 L 29 56 L 29 70.394531 L 17 70.394531 Z M 17 56 " clip-rule="nonzero"/></clipPath></defs><rect x="-7.5" width="90" fill="#ffffff" y="-7.5" height="89.999996" fill-opacity="1"/><rect x="-7.5" width="90" fill="#2e2e2e" y="-7.5" height="89.999996" fill-opacity="1"/><path fill="#09abc8" d="M 48.855469 11.691406 C 48.855469 12.066406 49.160156 12.371094 49.535156 12.371094 L 51.777344 12.371094 C 52.152344 12.371094 52.453125 12.066406 52.453125 11.691406 C 52.453125 11.316406 52.152344 11.011719 51.777344 11.011719 L 49.535156 11.011719 C 49.160156 11.011719 48.855469 11.316406 48.855469 11.691406 Z M 48.855469 11.691406 " fill-opacity="1" fill-rule="nonzero"/><path fill="#09abc8" d="M 49.3125 10.820312 C 49.453125 10.820312 49.597656 10.773438 49.722656 10.679688 L 51.507812 9.328125 C 51.804688 9.101562 51.863281 8.675781 51.636719 8.378906 C 51.410156 8.078125 50.984375 8.019531 50.6875 8.246094 L 48.902344 9.601562 C 48.601562 9.824219 48.542969 10.253906 48.769531 10.550781 C 48.90625 10.726562 49.105469 10.820312 49.3125 10.820312 Z M 49.3125 10.820312 " fill-opacity="1" fill-rule="nonzero"/><path fill="#09abc8" d="M 51.507812 14.058594 L 49.722656 12.703125 C 49.421875 12.476562 48.996094 12.535156 48.773438 12.835938 C 48.546875 13.132812 48.605469 13.558594 48.902344 13.785156 L 50.6875 15.136719 C 50.8125 15.230469 50.953125 15.277344 51.097656 15.277344 C 51.300781 15.277344 51.503906 15.183594 51.636719 15.003906 C 51.863281 14.707031 51.804688 14.28125 51.507812 14.058594 Z M 51.507812 14.058594 " fill-opacity="1" fill-rule="nonzero"/><g clip-path="url(#433526ade4)"><path fill="#09abc8" d="M 71.167969 29.449219 L 64.230469 29.449219 C 64.191406 29.34375 64.148438 29.234375 64.109375 29.128906 L 63.265625 29.449219 L 59.261719 29.449219 C 58.886719 29.449219 58.582031 29.753906 58.582031 30.128906 L 58.582031 39.269531 C 58.582031 39.648438 58.886719 39.949219 59.261719 39.949219 L 62.003906 39.949219 L 62.003906 43.058594 C 62.003906 43.339844 62.175781 43.589844 62.4375 43.691406 C 62.515625 43.722656 62.601562 43.738281 62.683594 43.738281 C 62.871094 43.738281 63.054688 43.660156 63.183594 43.519531 L 64.421875 42.175781 C 64.386719 42.460938 64.347656 42.746094 64.308594 43.027344 L 65.652344 43.226562 C 65.714844 42.824219 65.765625 42.417969 65.804688 42.011719 L 64.679688 41.894531 L 65.460938 41.042969 L 65.886719 41.074219 C 65.898438 40.902344 65.910156 40.726562 65.917969 40.550781 L 66.46875 39.949219 L 71.167969 39.949219 C 71.542969 39.949219 71.84375 39.648438 71.84375 39.269531 L 71.84375 30.128906 C 71.84375 29.753906 71.542969 29.449219 71.167969 29.449219 Z M 70.488281 38.589844 L 66.167969 38.589844 C 65.980469 38.589844 65.800781 38.671875 65.671875 38.808594 L 63.363281 41.316406 L 63.363281 39.269531 C 63.363281 38.894531 63.058594 38.589844 62.683594 38.589844 L 59.941406 38.589844 L 59.941406 30.808594 L 70.488281 30.808594 Z M 70.488281 38.589844 " fill-opacity="1" fill-rule="nonzero"/></g><path fill="#09abc8" d="M 61.332031 37.945312 C 61.6875 38.074219 62.074219 37.890625 62.203125 37.539062 L 62.488281 36.753906 L 64.121094 36.753906 L 64.40625 37.539062 C 64.507812 37.816406 64.769531 37.988281 65.046875 37.988281 C 65.125 37.988281 65.203125 37.976562 65.277344 37.945312 C 65.628906 37.816406 65.8125 37.429688 65.683594 37.078125 L 65.644531 36.972656 C 65.953125 37.609375 66.605469 38.050781 67.359375 38.050781 C 67.671875 38.050781 67.964844 37.976562 68.222656 37.84375 C 68.339844 37.9375 68.484375 37.992188 68.640625 37.992188 C 69.019531 37.992188 69.320312 37.6875 69.320312 37.3125 L 69.320312 32.519531 C 69.320312 32.144531 69.019531 31.839844 68.640625 31.839844 C 68.265625 31.839844 67.964844 32.144531 67.964844 32.519531 L 67.964844 34.339844 C 67.773438 34.277344 67.570312 34.242188 67.359375 34.242188 C 66.3125 34.242188 65.457031 35.09375 65.457031 36.144531 C 65.457031 36.304688 65.476562 36.460938 65.511719 36.613281 L 63.945312 32.285156 C 63.847656 32.019531 63.589844 31.839844 63.304688 31.839844 C 63.019531 31.839844 62.765625 32.015625 62.667969 32.285156 L 60.925781 37.078125 C 60.800781 37.429688 60.984375 37.816406 61.332031 37.945312 Z M 67.363281 35.597656 C 67.664062 35.597656 67.910156 35.839844 67.910156 36.140625 C 67.910156 36.445312 67.664062 36.6875 67.363281 36.6875 C 67.058594 36.6875 66.816406 36.445312 66.816406 36.140625 C 66.816406 35.839844 67.058594 35.597656 67.363281 35.597656 Z M 63.308594 34.503906 L 63.628906 35.394531 L 62.984375 35.394531 Z M 63.308594 34.503906 " fill-opacity="1" fill-rule="nonzero"/><path fill="#09abc8" d="M 13.507812 36.003906 L 9.761719 33.84375 C 9.550781 33.722656 9.292969 33.722656 9.082031 33.84375 C 8.871094 33.964844 8.742188 34.1875 8.742188 34.429688 L 8.742188 38.757812 C 8.742188 39 8.871094 39.222656 9.082031 39.34375 C 9.1875 39.402344 9.304688 39.433594 9.421875 39.433594 C 9.539062 39.433594 9.65625 39.40625 9.757812 39.34375 L 13.503906 37.179688 C 13.714844 37.058594 13.84375 36.835938 13.84375 36.59375 C 13.84375 36.351562 13.71875 36.125 13.507812 36.003906 Z M 10.101562 37.578125 L 10.101562 35.605469 L 11.8125 36.59375 Z M 10.101562 37.578125 " fill-opacity="1" fill-rule="nonzero"/><path fill="#09abc8" d="M 14.445312 31.910156 L 15.625 31.910156 L 15.625 32.96875 L 14.445312 32.96875 Z M 14.445312 31.910156 " fill-opacity="1" fill-rule="nonzero"/><path fill="#09abc8" d="M 6.082031 31.910156 L 7.265625 31.910156 L 7.265625 32.96875 L 6.082031 32.96875 Z M 6.082031 31.910156 " fill-opacity="1" fill-rule="nonzero"/><path fill="#09abc8" d="M 8.175781 31.910156 L 9.355469 31.910156 L 9.355469 32.96875 L 8.175781 32.96875 Z M 8.175781 31.910156 " fill-opacity="1" fill-rule="nonzero"/><path fill="#09abc8" d="M 12.355469 31.910156 L 13.535156 31.910156 L 13.535156 32.96875 L 12.355469 32.96875 Z M 12.355469 31.910156 " fill-opacity="1" fill-rule="nonzero"/><path fill="#09abc8" d="M 10.265625 31.910156 L 11.445312 31.910156 L 11.445312 32.96875 L 10.265625 32.96875 Z M 10.265625 31.910156 " fill-opacity="1" fill-rule="nonzero"/><path fill="#09abc8" d="M 10.265625 40.289062 L 11.445312 40.289062 L 11.445312 41.347656 L 10.265625 41.347656 Z M 10.265625 40.289062 " fill-opacity="1" fill-rule="nonzero"/><path fill="#09abc8" d="M 14.445312 40.289062 L 15.625 40.289062 L 15.625 41.347656 L 14.445312 41.347656 Z M 14.445312 40.289062 " fill-opacity="1" fill-rule="nonzero"/><path fill="#09abc8" d="M 8.175781 40.289062 L 9.355469 40.289062 L 9.355469 41.347656 L 8.175781 41.347656 Z M 8.175781 40.289062 " fill-opacity="1" fill-rule="nonzero"/><path fill="#09abc8" d="M 12.355469 40.289062 L 13.535156 40.289062 L 13.535156 41.347656 L 12.355469 41.347656 Z M 12.355469 40.289062 " fill-opacity="1" fill-rule="nonzero"/><path fill="#09abc8" d="M 6.082031 40.289062 L 7.265625 40.289062 L 7.265625 41.347656 L 6.082031 41.347656 Z M 6.082031 40.289062 " fill-opacity="1" fill-rule="nonzero"/><path fill="#09abc8" d="M 19.558594 61.546875 C 19.558594 61.878906 19.828125 62.144531 20.160156 62.144531 L 25.894531 62.144531 C 26.226562 62.144531 26.496094 61.878906 26.496094 61.546875 C 26.496094 61.214844 26.226562 60.945312 25.894531 60.945312 L 20.160156 60.945312 C 19.828125 60.945312 19.558594 61.214844 19.558594 61.546875 Z M 19.558594 61.546875 " fill-opacity="1" fill-rule="nonzero"/><path fill="#09abc8" d="M 25.898438 62.980469 L 20.160156 62.980469 C 19.828125 62.980469 19.558594 63.25 19.558594 63.582031 C 19.558594 63.914062 19.828125 64.179688 20.160156 64.179688 L 25.894531 64.179688 C 26.226562 64.179688 26.496094 63.914062 26.496094 63.582031 C 26.496094 63.25 26.226562 62.980469 25.898438 62.980469 Z M 25.898438 62.980469 " fill-opacity="1" fill-rule="nonzero"/><path fill="#09abc8" d="M 25.898438 65.015625 L 20.160156 65.015625 C 19.828125 65.015625 19.558594 65.285156 19.558594 65.613281 C 19.558594 65.945312 19.828125 66.214844 20.160156 66.214844 L 25.894531 66.214844 C 26.226562 66.214844 26.496094 65.945312 26.496094 65.613281 C 26.496094 65.285156 26.226562 65.015625 25.898438 65.015625 Z M 25.898438 65.015625 " fill-opacity="1" fill-rule="nonzero"/><path fill="#09abc8" d="M 25.898438 67.046875 L 20.160156 67.046875 C 19.828125 67.046875 19.558594 67.316406 19.558594 67.648438 C 19.558594 67.980469 19.828125 68.25 20.160156 68.25 L 25.894531 68.25 C 26.226562 68.25 26.496094 67.980469 26.496094 67.648438 C 26.496094 67.316406 26.226562 67.046875 25.898438 67.046875 Z M 25.898438 67.046875 " fill-opacity="1" fill-rule="nonzero"/><g clip-path="url(#ccbd747d01)"><path fill="#09abc8" d="M 65.984375 59.425781 L 63.761719 58.464844 L 64.449219 56.144531 C 64.515625 55.917969 64.445312 55.675781 64.265625 55.519531 C 64.089844 55.367188 63.835938 55.332031 63.621094 55.433594 L 60.070312 57.09375 C 59.914062 57.167969 59.800781 57.300781 59.75 57.464844 L 58.988281 60.039062 L 57.988281 60.507812 C 57.757812 60.117188 57.488281 59.75 57.179688 59.410156 C 57.261719 59.335938 57.34375 59.257812 57.421875 59.179688 L 56.480469 58.203125 C 56.375 58.304688 56.269531 58.40625 56.160156 58.503906 C 55.773438 58.226562 55.359375 57.996094 54.917969 57.808594 C 54.121094 57.472656 53.273438 57.300781 52.402344 57.300781 C 51.527344 57.300781 50.683594 57.472656 49.886719 57.808594 C 49.117188 58.136719 48.425781 58.601562 47.832031 59.195312 C 47.234375 59.789062 46.769531 60.480469 46.445312 61.25 C 46.109375 62.046875 45.9375 62.894531 45.9375 63.765625 C 45.9375 63.988281 45.949219 64.210938 45.972656 64.425781 C 45.835938 64.46875 45.699219 64.507812 45.566406 64.546875 L 45.949219 65.851562 C 46.046875 65.820312 46.152344 65.792969 46.253906 65.757812 C 46.308594 65.9375 46.375 66.109375 46.449219 66.28125 C 46.773438 67.050781 47.238281 67.742188 47.832031 68.335938 C 48.425781 68.929688 49.117188 69.394531 49.886719 69.722656 C 50.683594 70.058594 51.53125 70.230469 52.402344 70.230469 C 53.277344 70.230469 54.125 70.058594 54.921875 69.722656 C 55.691406 69.394531 56.382812 68.929688 56.976562 68.335938 C 57.570312 67.742188 58.035156 67.050781 58.359375 66.28125 C 58.695312 65.484375 58.867188 64.636719 58.867188 63.765625 C 58.867188 63.015625 58.742188 62.289062 58.492188 61.59375 L 59.496094 61.125 L 61.960938 62.1875 C 62.035156 62.222656 62.117188 62.238281 62.199219 62.238281 C 62.285156 62.238281 62.371094 62.21875 62.453125 62.179688 L 66.003906 60.519531 C 66.214844 60.417969 66.351562 60.203125 66.347656 59.96875 C 66.34375 59.730469 66.203125 59.515625 65.984375 59.425781 Z M 56.125 67.488281 C 55.128906 68.484375 53.808594 69.03125 52.402344 69.03125 C 50.996094 69.03125 49.671875 68.484375 48.679688 67.488281 C 47.683594 66.496094 47.136719 65.175781 47.136719 63.765625 C 47.136719 62.359375 47.683594 61.039062 48.679688 60.042969 C 49.671875 59.046875 50.996094 58.5 52.402344 58.5 C 53.808594 58.5 55.128906 59.046875 56.125 60.042969 C 56.421875 60.339844 56.679688 60.667969 56.894531 61.019531 L 56.03125 61.425781 C 55.867188 61.171875 55.675781 60.933594 55.457031 60.714844 C 54.640625 59.898438 53.558594 59.449219 52.402344 59.449219 C 51.25 59.449219 50.164062 59.898438 49.351562 60.714844 C 48.535156 61.527344 48.085938 62.613281 48.085938 63.765625 C 48.085938 64.921875 48.535156 66.003906 49.351562 66.820312 C 50.164062 67.632812 51.25 68.085938 52.402344 68.085938 C 53.558594 68.085938 54.640625 67.632812 55.457031 66.820312 C 56.273438 66.003906 56.722656 64.921875 56.722656 63.765625 C 56.722656 63.335938 56.65625 62.914062 56.539062 62.511719 L 57.402344 62.105469 C 57.578125 62.636719 57.671875 63.191406 57.671875 63.765625 C 57.667969 65.171875 57.117188 66.496094 56.125 67.488281 Z M 51.90625 64.015625 C 52.007812 64.234375 52.222656 64.363281 52.449219 64.363281 C 52.53125 64.363281 52.617188 64.34375 52.703125 64.304688 L 53.34375 64.007812 C 53.234375 64.425781 52.855469 64.738281 52.402344 64.738281 C 51.867188 64.738281 51.429688 64.300781 51.429688 63.765625 C 51.429688 63.230469 51.867188 62.792969 52.402344 62.792969 C 52.566406 62.792969 52.722656 62.835938 52.855469 62.910156 L 52.191406 63.21875 C 51.894531 63.359375 51.761719 63.71875 51.90625 64.015625 Z M 52.402344 61.59375 C 51.203125 61.59375 50.230469 62.570312 50.230469 63.765625 C 50.230469 64.964844 51.203125 65.9375 52.402344 65.9375 C 53.597656 65.9375 54.574219 64.964844 54.574219 63.765625 C 54.574219 63.65625 54.5625 63.546875 54.546875 63.441406 L 55.433594 63.027344 C 55.488281 63.265625 55.519531 63.511719 55.519531 63.765625 C 55.519531 65.484375 54.121094 66.882812 52.402344 66.882812 C 50.683594 66.882812 49.285156 65.484375 49.285156 63.765625 C 49.285156 62.046875 50.683594 60.648438 52.402344 60.648438 C 53.4375 60.648438 54.359375 61.15625 54.925781 61.9375 L 54.046875 62.351562 C 53.648438 61.890625 53.058594 61.59375 52.402344 61.59375 Z M 60.820312 58.066406 L 62.921875 57.082031 L 62.539062 58.375 L 60.4375 59.359375 Z M 62.1875 60.980469 L 60.949219 60.445312 L 63.046875 59.460938 L 64.285156 59.996094 Z M 62.1875 60.980469 " fill-opacity="1" fill-rule="nonzero"/></g><path fill="#09abc8" d="M 47.632812 40.835938 L 48.105469 40.367188 C 48.273438 40.199219 48.339844 39.953125 48.28125 39.722656 C 48.222656 39.488281 48.046875 39.304688 47.816406 39.234375 L 44.707031 38.304688 C 44.753906 38.050781 44.785156 37.789062 44.804688 37.53125 C 44.8125 37.378906 44.820312 37.21875 44.820312 37.066406 C 44.820312 36.152344 44.640625 35.269531 44.289062 34.433594 C 43.949219 33.628906 43.460938 32.90625 42.839844 32.285156 C 42.21875 31.664062 41.496094 31.175781 40.691406 30.835938 C 39.859375 30.484375 38.972656 30.304688 38.0625 30.304688 C 37.148438 30.304688 36.261719 30.484375 35.429688 30.835938 C 34.625 31.175781 33.902344 31.664062 33.28125 32.285156 C 32.660156 32.90625 32.171875 33.628906 31.832031 34.433594 C 31.480469 35.269531 31.300781 36.152344 31.300781 37.066406 C 31.300781 37.976562 31.480469 38.863281 31.832031 39.695312 C 32.171875 40.5 32.660156 41.222656 33.28125 41.84375 C 33.902344 42.464844 34.625 42.953125 35.429688 43.292969 C 36.261719 43.644531 37.148438 43.824219 38.0625 43.824219 C 39.75 43.824219 41.355469 43.199219 42.59375 42.078125 L 43.140625 43.910156 C 43.210938 44.140625 43.394531 44.316406 43.625 44.375 C 43.855469 44.433594 44.101562 44.367188 44.269531 44.199219 L 44.742188 43.726562 L 45.886719 44.875 C 46.019531 45.003906 46.195312 45.074219 46.367188 45.074219 C 46.539062 45.074219 46.714844 45.003906 46.847656 44.875 L 48.777344 42.945312 C 49.042969 42.679688 49.042969 42.25 48.777344 41.984375 Z M 42.347656 37.597656 C 42.105469 37.523438 41.847656 37.589844 41.671875 37.765625 C 41.496094 37.941406 41.429688 38.203125 41.5 38.441406 L 42.144531 40.597656 C 41.117188 41.785156 39.628906 42.46875 38.058594 42.46875 C 36.617188 42.46875 35.261719 41.90625 34.238281 40.886719 C 33.21875 39.867188 32.65625 38.507812 32.65625 37.066406 C 32.65625 35.621094 33.21875 34.265625 34.238281 33.246094 C 35.257812 32.226562 36.617188 31.664062 38.058594 31.664062 C 39.5 31.664062 40.859375 32.226562 41.878906 33.246094 C 42.898438 34.265625 43.460938 35.621094 43.460938 37.066406 C 43.460938 37.191406 43.457031 37.316406 43.449219 37.4375 C 43.4375 37.597656 43.421875 37.753906 43.394531 37.910156 Z M 46.371094 43.433594 L 45.222656 42.289062 C 45.097656 42.160156 44.921875 42.089844 44.742188 42.089844 C 44.5625 42.089844 44.390625 42.160156 44.265625 42.289062 L 44.117188 42.433594 L 43.164062 39.257812 L 46.339844 40.210938 L 46.195312 40.359375 C 46.066406 40.484375 45.996094 40.65625 45.996094 40.835938 C 45.996094 41.015625 46.066406 41.191406 46.195312 41.316406 L 47.339844 42.464844 Z M 46.371094 43.433594 " fill-opacity="1" fill-rule="nonzero"/><path fill="#09abc8" d="M 37.898438 34.996094 L 38.222656 34.996094 C 38.570312 34.996094 38.859375 35.28125 38.859375 35.632812 C 38.859375 36.007812 39.160156 36.308594 39.535156 36.308594 C 39.914062 36.308594 40.214844 36.007812 40.214844 35.632812 C 40.214844 34.710938 39.589844 33.933594 38.738281 33.703125 L 38.738281 33.394531 C 38.738281 33.015625 38.4375 32.714844 38.0625 32.714844 C 37.683594 32.714844 37.382812 33.015625 37.382812 33.394531 L 37.382812 33.703125 C 36.535156 33.933594 35.90625 34.710938 35.90625 35.632812 L 35.90625 35.675781 C 35.90625 36.453125 36.363281 37.164062 37.070312 37.488281 L 38.488281 38.128906 C 38.710938 38.234375 38.859375 38.457031 38.859375 38.707031 L 38.859375 38.761719 C 38.859375 39.113281 38.570312 39.398438 38.222656 39.398438 L 38.144531 39.398438 C 38.117188 39.398438 38.089844 39.394531 38.0625 39.394531 C 38.03125 39.394531 38.003906 39.398438 37.976562 39.398438 L 37.898438 39.398438 C 37.550781 39.398438 37.261719 39.113281 37.261719 38.761719 L 37.261719 38.652344 C 37.261719 38.277344 36.960938 37.976562 36.585938 37.976562 C 36.207031 37.976562 35.90625 38.277344 35.90625 38.652344 L 35.90625 38.761719 C 35.90625 39.683594 36.53125 40.460938 37.382812 40.691406 L 37.382812 41.054688 C 37.382812 41.429688 37.683594 41.734375 38.0625 41.734375 C 38.4375 41.734375 38.738281 41.429688 38.738281 41.054688 L 38.738281 40.691406 C 39.589844 40.460938 40.214844 39.683594 40.214844 38.761719 L 40.214844 38.707031 C 40.214844 37.925781 39.757812 37.214844 39.050781 36.894531 L 37.632812 36.25 C 37.410156 36.148438 37.261719 35.921875 37.261719 35.675781 L 37.261719 35.632812 C 37.261719 35.28125 37.550781 34.996094 37.898438 34.996094 Z M 37.898438 34.996094 " fill-opacity="1" fill-rule="nonzero"/><path fill="#09abc8" d="M 45.070312 53.289062 L 42.054688 53.289062 L 42.054688 50.496094 L 52.707031 50.496094 C 53.085938 50.496094 53.386719 50.191406 53.386719 49.816406 L 53.386719 28.402344 C 53.386719 28.027344 53.085938 27.722656 52.707031 27.722656 L 23.941406 27.722656 C 23.566406 27.722656 23.261719 28.027344 23.261719 28.402344 L 23.261719 49.816406 C 23.261719 50.191406 23.566406 50.496094 23.941406 50.496094 L 34.597656 50.496094 L 34.597656 53.289062 L 31.578125 53.289062 C 31.203125 53.289062 30.898438 53.589844 30.898438 53.96875 C 30.898438 54.34375 31.203125 54.644531 31.578125 54.644531 L 45.070312 54.644531 C 45.449219 54.644531 45.75 54.34375 45.75 53.96875 C 45.75 53.589844 45.445312 53.289062 45.070312 53.289062 Z M 24.621094 29.082031 L 52.027344 29.082031 L 52.027344 45.164062 L 24.621094 45.164062 Z M 40.695312 53.289062 L 35.953125 53.289062 L 35.953125 50.496094 L 40.695312 50.496094 Z M 41.375 49.109375 L 35.277344 49.109375 C 35.210938 49.109375 35.148438 49.117188 35.089844 49.136719 L 24.621094 49.136719 L 24.621094 46.519531 L 52.027344 46.519531 L 52.027344 49.136719 L 41.5625 49.136719 C 41.5 49.117188 41.4375 49.109375 41.375 49.109375 Z M 41.375 49.109375 " fill-opacity="1" fill-rule="nonzero"/><path fill="#09abc8" d="M 16 24.480469 L 14.871094 23.726562 C 14.652344 24.050781 14.441406 24.386719 14.242188 24.71875 L 15.402344 25.421875 C 15.597656 25.101562 15.796875 24.789062 16 24.480469 Z M 16 24.480469 " fill-opacity="1" fill-rule="nonzero"/><path fill="#09abc8" d="M 19.796875 19.949219 L 18.855469 18.96875 C 18.578125 19.234375 18.296875 19.515625 18.027344 19.792969 L 19.003906 20.734375 C 19.261719 20.46875 19.527344 20.207031 19.796875 19.949219 Z M 19.796875 19.949219 " fill-opacity="1" fill-rule="nonzero"/><path fill="#09abc8" d="M 21.273438 18.640625 L 20.410156 17.589844 C 20.109375 17.839844 19.808594 18.097656 19.519531 18.355469 L 20.425781 19.367188 C 20.699219 19.117188 20.984375 18.875 21.273438 18.640625 Z M 21.273438 18.640625 " fill-opacity="1" fill-rule="nonzero"/><path fill="#09abc8" d="M 14.070312 27.917969 L 12.839844 27.34375 C 12.675781 27.695312 12.515625 28.058594 12.363281 28.417969 L 13.617188 28.9375 C 13.761719 28.597656 13.914062 28.253906 14.070312 27.917969 Z M 14.070312 27.917969 " fill-opacity="1" fill-rule="nonzero"/><path fill="#09abc8" d="M 18.417969 21.363281 L 17.410156 20.453125 C 17.148438 20.742188 16.890625 21.042969 16.644531 21.339844 L 17.6875 22.207031 C 17.925781 21.921875 18.171875 21.636719 18.417969 21.363281 Z M 18.417969 21.363281 " fill-opacity="1" fill-rule="nonzero"/><path fill="#09abc8" d="M 14.972656 26.160156 L 13.789062 25.496094 C 13.597656 25.835938 13.414062 26.183594 13.234375 26.53125 L 14.449219 27.144531 C 14.613281 26.816406 14.789062 26.484375 14.972656 26.160156 Z M 14.972656 26.160156 " fill-opacity="1" fill-rule="nonzero"/><path fill="#09abc8" d="M 28.011719 14.601562 L 27.496094 13.34375 C 27.136719 13.492188 26.773438 13.648438 26.421875 13.8125 L 26.992188 15.046875 C 27.328125 14.890625 27.671875 14.742188 28.011719 14.601562 Z M 28.011719 14.601562 " fill-opacity="1" fill-rule="nonzero"/><path fill="#09abc8" d="M 31.753906 13.378906 L 31.429688 12.058594 C 31.050781 12.152344 30.671875 12.253906 30.296875 12.363281 L 30.675781 13.664062 C 31.03125 13.5625 31.394531 13.464844 31.753906 13.378906 Z M 31.753906 13.378906 " fill-opacity="1" fill-rule="nonzero"/><path fill="#09abc8" d="M 26.21875 15.417969 L 25.609375 14.203125 C 25.261719 14.378906 24.914062 14.5625 24.574219 14.753906 L 25.234375 15.941406 C 25.558594 15.761719 25.890625 15.585938 26.21875 15.417969 Z M 26.21875 15.417969 " fill-opacity="1" fill-rule="nonzero"/><path fill="#09abc8" d="M 17.152344 22.875 L 16.082031 22.042969 C 15.84375 22.351562 15.605469 22.667969 15.378906 22.984375 L 16.488281 23.769531 C 16.703125 23.46875 16.925781 23.167969 17.152344 22.875 Z M 17.152344 22.875 " fill-opacity="1" fill-rule="nonzero"/><path fill="#09abc8" d="M 29.859375 13.917969 L 29.441406 12.628906 C 29.070312 12.746094 28.699219 12.878906 28.332031 13.015625 L 28.808594 14.289062 C 29.15625 14.15625 29.507812 14.035156 29.859375 13.917969 Z M 29.859375 13.917969 " fill-opacity="1" fill-rule="nonzero"/><path fill="#09abc8" d="M 22.839844 17.445312 L 22.054688 16.335938 C 21.738281 16.558594 21.421875 16.792969 21.113281 17.03125 L 21.941406 18.105469 C 22.234375 17.878906 22.539062 17.65625 22.839844 17.445312 Z M 22.839844 17.445312 " fill-opacity="1" fill-rule="nonzero"/><path fill="#09abc8" d="M 24.492188 16.367188 L 23.792969 15.203125 C 23.460938 15.402344 23.128906 15.613281 22.800781 15.828125 L 23.546875 16.960938 C 23.855469 16.757812 24.175781 16.558594 24.492188 16.367188 Z M 24.492188 16.367188 " fill-opacity="1" fill-rule="nonzero"/><g clip-path="url(#0240d1dde7)"><path fill="#09abc8" d="M 32.753906 13.152344 C 33.207031 14.148438 34.175781 14.863281 35.316406 14.953125 L 35.316406 18.988281 C 35.316406 19.898438 36.054688 20.640625 36.96875 20.640625 L 37.128906 20.640625 C 38.039062 20.640625 38.78125 19.898438 38.78125 18.988281 L 38.78125 14.960938 L 40.011719 14.960938 C 40.035156 14.96875 40.0625 14.976562 40.085938 14.980469 C 42.050781 15.367188 43.871094 16.28125 45.355469 17.625 L 46.144531 18.339844 C 46.269531 18.453125 46.433594 18.515625 46.601562 18.515625 C 46.695312 18.515625 46.789062 18.496094 46.875 18.457031 C 47.121094 18.347656 47.28125 18.105469 47.28125 17.835938 L 47.28125 13.824219 C 48.085938 13.542969 48.664062 12.777344 48.664062 11.875 C 48.664062 10.976562 48.085938 10.210938 47.28125 9.929688 L 47.28125 5.898438 C 47.28125 5.628906 47.121094 5.386719 46.875 5.277344 C 46.632812 5.167969 46.34375 5.214844 46.144531 5.394531 L 45.355469 6.109375 C 43.871094 7.453125 42.050781 8.367188 40.085938 8.753906 C 40.039062 8.765625 39.992188 8.777344 39.945312 8.796875 L 35.558594 8.796875 C 33.878906 8.796875 32.507812 10.148438 32.476562 11.820312 C 32.421875 11.832031 32.367188 11.84375 32.316406 11.855469 L 32.597656 13.183594 C 32.648438 13.175781 32.703125 13.164062 32.753906 13.152344 Z M 47.277344 11.78125 C 47.28125 11.753906 47.28125 11.726562 47.28125 11.695312 L 47.28125 11.140625 C 47.480469 11.324219 47.605469 11.585938 47.605469 11.878906 C 47.605469 12.167969 47.480469 12.433594 47.28125 12.617188 L 47.28125 12.039062 C 47.28125 12.011719 47.28125 11.984375 47.277344 11.957031 Z M 40.902344 12.039062 L 40.902344 9.964844 C 42.746094 9.511719 44.464844 8.640625 45.921875 7.417969 L 45.921875 11.613281 C 45.921875 11.636719 45.917969 11.667969 45.917969 11.695312 L 45.917969 12.039062 C 45.917969 12.066406 45.921875 12.09375 45.921875 12.121094 L 45.921875 16.316406 C 44.464844 15.09375 42.746094 14.21875 40.902344 13.769531 Z M 37.425781 18.988281 C 37.425781 19.148438 37.292969 19.28125 37.128906 19.28125 L 36.96875 19.28125 C 36.808594 19.28125 36.675781 19.148438 36.675781 18.988281 L 36.675781 14.96875 L 37.425781 14.96875 Z M 35.558594 10.15625 L 39.539062 10.15625 L 39.539062 11.695312 C 39.539062 11.71875 39.542969 11.738281 39.542969 11.761719 L 39.542969 11.976562 C 39.542969 11.996094 39.539062 12.019531 39.539062 12.039062 L 39.539062 13.601562 L 35.558594 13.601562 C 34.609375 13.601562 33.835938 12.832031 33.835938 11.878906 C 33.835938 10.929688 34.609375 10.15625 35.558594 10.15625 Z M 35.558594 10.15625 " fill-opacity="1" fill-rule="nonzero"/></g><path fill="#09abc8" d="M 12.175781 44.667969 L 10.847656 44.953125 C 10.933594 45.335938 11.023438 45.726562 11.121094 46.109375 L 12.433594 45.765625 C 12.34375 45.40625 12.253906 45.035156 12.175781 44.667969 Z M 12.175781 44.667969 " fill-opacity="1" fill-rule="nonzero"/><path fill="#09abc8" d="M 14.082031 50.335938 L 12.851562 50.910156 C 13.019531 51.265625 13.195312 51.625 13.378906 51.972656 L 14.582031 51.347656 C 14.40625 51.015625 14.238281 50.675781 14.082031 50.335938 Z M 14.082031 50.335938 " fill-opacity="1" fill-rule="nonzero"/><path fill="#09abc8" d="M 12.667969 46.605469 L 11.363281 46.988281 C 11.476562 47.367188 11.59375 47.746094 11.722656 48.117188 L 13.011719 47.679688 C 12.886719 47.324219 12.773438 46.964844 12.667969 46.605469 Z M 12.667969 46.605469 " fill-opacity="1" fill-rule="nonzero"/><path fill="#09abc8" d="M 13.304688 48.496094 L 12.03125 48.976562 C 12.171875 49.347656 12.324219 49.714844 12.476562 50.078125 L 13.726562 49.542969 C 13.578125 49.199219 13.433594 48.847656 13.304688 48.496094 Z M 13.304688 48.496094 " fill-opacity="1" fill-rule="nonzero"/><path fill="#09abc8" d="M 16.039062 53.8125 L 14.910156 54.566406 C 15.128906 54.894531 15.359375 55.222656 15.589844 55.539062 L 16.6875 54.738281 C 16.464844 54.433594 16.25 54.125 16.039062 53.8125 Z M 16.039062 53.8125 " fill-opacity="1" fill-rule="nonzero"/><path fill="#09abc8" d="M 17.210938 55.429688 L 16.144531 56.265625 C 16.386719 56.574219 16.636719 56.882812 16.894531 57.183594 L 17.925781 56.300781 C 17.683594 56.019531 17.441406 55.726562 17.210938 55.429688 Z M 17.210938 55.429688 " fill-opacity="1" fill-rule="nonzero"/><path fill="#09abc8" d="M 14.996094 52.109375 L 13.8125 52.777344 C 14.003906 53.117188 14.207031 53.460938 14.414062 53.796875 L 15.570312 53.082031 C 15.371094 52.765625 15.179688 52.4375 14.996094 52.109375 Z M 14.996094 52.109375 " fill-opacity="1" fill-rule="nonzero"/><g clip-path="url(#1a442a394b)"><path fill="#09abc8" d="M 11.960938 43.542969 L 15.675781 43.542969 C 16.917969 43.542969 17.925781 42.53125 17.925781 41.292969 L 17.925781 31.894531 C 17.925781 30.652344 16.917969 29.644531 15.675781 29.644531 L 13.058594 29.644531 L 12.03125 29.257812 C 11.984375 29.386719 11.9375 29.515625 11.890625 29.644531 L 6.277344 29.644531 C 5.039062 29.644531 4.027344 30.652344 4.027344 31.894531 L 4.027344 41.292969 C 4.027344 42.53125 5.039062 43.542969 6.277344 43.542969 L 10.585938 43.542969 C 10.613281 43.710938 10.644531 43.882812 10.671875 44.054688 L 12.011719 43.8125 C 11.996094 43.726562 11.976562 43.632812 11.960938 43.542969 Z M 6.277344 42.183594 C 5.785156 42.183594 5.386719 41.78125 5.386719 41.292969 L 5.386719 31.894531 C 5.386719 31.402344 5.789062 31.003906 6.277344 31.003906 L 15.675781 31.003906 C 16.167969 31.003906 16.566406 31.402344 16.566406 31.894531 L 16.566406 31.910156 L 16.535156 31.910156 L 16.535156 32.96875 L 16.566406 32.96875 L 16.566406 40.289062 L 16.535156 40.289062 L 16.535156 41.347656 L 16.566406 41.347656 C 16.539062 41.8125 16.148438 42.183594 15.675781 42.183594 Z M 6.277344 42.183594 " fill-opacity="1" fill-rule="nonzero"/></g><path fill="#09abc8" d="M 38.097656 65.617188 C 37.933594 65.617188 37.769531 65.613281 37.605469 65.609375 L 37.582031 66.96875 C 37.753906 66.972656 37.925781 66.976562 38.097656 66.976562 C 38.324219 66.976562 38.554688 66.972656 38.777344 66.964844 L 38.746094 65.609375 C 38.53125 65.613281 38.3125 65.617188 38.097656 65.617188 Z M 38.097656 65.617188 " fill-opacity="1" fill-rule="nonzero"/><path fill="#09abc8" d="M 43.609375 65.042969 L 43.890625 66.371094 C 44.28125 66.285156 44.671875 66.195312 45.058594 66.097656 L 44.71875 64.78125 C 44.355469 64.875 43.980469 64.960938 43.609375 65.042969 Z M 43.609375 65.042969 " fill-opacity="1" fill-rule="nonzero"/><path fill="#09abc8" d="M 41.628906 65.382812 L 41.808594 66.726562 C 42.199219 66.675781 42.597656 66.613281 42.992188 66.542969 L 42.753906 65.207031 C 42.378906 65.273438 42 65.332031 41.628906 65.382812 Z M 41.628906 65.382812 " fill-opacity="1" fill-rule="nonzero"/><path fill="#09abc8" d="M 33.367188 66.574219 C 33.757812 66.640625 34.15625 66.703125 34.550781 66.75 L 34.722656 65.402344 C 34.347656 65.355469 33.96875 65.300781 33.59375 65.234375 Z M 33.367188 66.574219 " fill-opacity="1" fill-rule="nonzero"/><path fill="#09abc8" d="M 35.464844 66.851562 C 35.863281 66.886719 36.261719 66.917969 36.660156 66.9375 L 36.730469 65.582031 C 36.351562 65.5625 35.96875 65.535156 35.59375 65.5 Z M 35.464844 66.851562 " fill-opacity="1" fill-rule="nonzero"/><path fill="#09abc8" d="M 31.292969 66.136719 C 31.679688 66.234375 32.070312 66.324219 32.460938 66.402344 L 32.734375 65.074219 C 32.363281 64.996094 31.988281 64.914062 31.625 64.820312 Z M 31.292969 66.136719 " fill-opacity="1" fill-rule="nonzero"/><path fill="#09abc8" d="M 39.621094 65.574219 L 39.699219 66.929688 C 40.09375 66.90625 40.496094 66.875 40.890625 66.835938 L 40.757812 65.484375 C 40.378906 65.519531 40 65.550781 39.621094 65.574219 Z M 39.621094 65.574219 " fill-opacity="1" fill-rule="nonzero"/><path fill="#09abc8" d="M 29.257812 65.542969 C 29.636719 65.667969 30.023438 65.789062 30.402344 65.898438 L 30.777344 64.59375 C 30.414062 64.488281 30.046875 64.375 29.6875 64.257812 Z M 29.257812 65.542969 " fill-opacity="1" fill-rule="nonzero"/><g clip-path="url(#5e186ee768)"><path fill="#09abc8" d="M 28.542969 60.058594 C 28.542969 59.898438 28.480469 59.746094 28.367188 59.636719 L 25.601562 56.871094 C 25.59375 56.863281 25.582031 56.851562 25.574219 56.84375 C 25.570312 56.84375 25.566406 56.839844 25.566406 56.835938 C 25.558594 56.828125 25.546875 56.820312 25.539062 56.8125 C 25.535156 56.8125 25.535156 56.8125 25.535156 56.808594 C 25.523438 56.804688 25.511719 56.796875 25.503906 56.789062 C 25.5 56.789062 25.496094 56.785156 25.492188 56.785156 C 25.484375 56.777344 25.476562 56.769531 25.464844 56.765625 C 25.460938 56.765625 25.460938 56.765625 25.460938 56.765625 C 25.449219 56.757812 25.4375 56.753906 25.425781 56.75 C 25.421875 56.746094 25.421875 56.746094 25.417969 56.746094 C 25.40625 56.738281 25.394531 56.734375 25.382812 56.730469 C 25.382812 56.730469 25.382812 56.730469 25.378906 56.730469 C 25.367188 56.726562 25.355469 56.71875 25.34375 56.714844 C 25.339844 56.714844 25.335938 56.714844 25.332031 56.714844 C 25.320312 56.710938 25.3125 56.707031 25.296875 56.703125 C 25.296875 56.703125 25.296875 56.703125 25.292969 56.703125 C 25.28125 56.703125 25.269531 56.699219 25.257812 56.699219 C 25.253906 56.699219 25.25 56.699219 25.246094 56.695312 C 25.234375 56.695312 25.222656 56.695312 25.210938 56.691406 C 25.210938 56.691406 25.207031 56.691406 25.207031 56.691406 C 25.195312 56.691406 25.183594 56.691406 25.175781 56.691406 L 18.113281 56.691406 C 17.78125 56.691406 17.511719 56.960938 17.511719 57.292969 L 17.511719 57.851562 L 17.496094 57.867188 C 17.5 57.875 17.507812 57.878906 17.511719 57.886719 L 17.511719 69.625 C 17.511719 69.957031 17.78125 70.222656 18.113281 70.222656 L 27.945312 70.222656 C 28.277344 70.222656 28.542969 69.957031 28.542969 69.625 L 28.542969 64.828125 L 28.863281 63.960938 C 28.757812 63.921875 28.652344 63.882812 28.542969 63.839844 Z M 25.78125 58.753906 L 26.363281 59.339844 L 25.78125 59.339844 Z M 27.34375 69.027344 L 18.710938 69.027344 L 18.710938 57.894531 L 24.582031 57.894531 L 24.582031 59.9375 C 24.582031 60.269531 24.847656 60.539062 25.179688 60.539062 L 27.347656 60.539062 L 27.347656 69.027344 Z M 27.34375 69.027344 " fill-opacity="1" fill-rule="nonzero"/></g><path fill="#09abc8" d="M 62.699219 48.984375 L 63.960938 49.488281 C 64.113281 49.113281 64.257812 48.726562 64.390625 48.34375 L 63.109375 47.894531 C 62.980469 48.257812 62.839844 48.625 62.699219 48.984375 Z M 62.699219 48.984375 " fill-opacity="1" fill-rule="nonzero"/><path fill="#09abc8" d="M 60.871094 52.675781 L 62.035156 53.371094 C 62.242188 53.023438 62.445312 52.664062 62.640625 52.304688 L 61.445312 51.660156 C 61.261719 52 61.066406 52.34375 60.871094 52.675781 Z M 60.871094 52.675781 " fill-opacity="1" fill-rule="nonzero"/><path fill="#09abc8" d="M 61.855469 50.863281 L 63.074219 51.46875 C 63.253906 51.101562 63.425781 50.730469 63.59375 50.359375 L 62.351562 49.808594 C 62.195312 50.164062 62.027344 50.515625 61.855469 50.863281 Z M 61.855469 50.863281 " fill-opacity="1" fill-rule="nonzero"/><path fill="#09abc8" d="M 63.390625 47.042969 L 64.6875 47.449219 C 64.808594 47.058594 64.921875 46.664062 65.027344 46.273438 L 63.714844 45.925781 C 63.613281 46.296875 63.507812 46.675781 63.390625 47.042969 Z M 63.390625 47.042969 " fill-opacity="1" fill-rule="nonzero"/><path fill="#09abc8" d="M 65.5 44.15625 L 64.164062 43.910156 C 64.09375 44.292969 64.015625 44.675781 63.929688 45.054688 L 65.253906 45.355469 C 65.34375 44.960938 65.425781 44.554688 65.5 44.15625 Z M 65.5 44.15625 " fill-opacity="1" fill-rule="nonzero"/><path fill="#09abc8" d="M 59.746094 54.402344 L 60.855469 55.1875 C 61.089844 54.855469 61.320312 54.511719 61.539062 54.167969 L 60.398438 53.433594 C 60.1875 53.761719 59.96875 54.085938 59.746094 54.402344 Z M 59.746094 54.402344 " fill-opacity="1" fill-rule="nonzero"/><path fill="#09abc8" d="M 58.492188 56.039062 L 59.535156 56.90625 C 59.792969 56.59375 60.050781 56.269531 60.296875 55.945312 L 59.214844 55.125 C 58.984375 55.433594 58.738281 55.738281 58.492188 56.039062 Z M 58.492188 56.039062 " fill-opacity="1" fill-rule="nonzero"/><path fill="#09abc8" d="M 57.113281 57.570312 L 58.089844 58.515625 C 58.371094 58.226562 58.652344 57.921875 58.921875 57.617188 L 57.910156 56.714844 C 57.648438 57.007812 57.382812 57.292969 57.113281 57.570312 Z M 57.113281 57.570312 " fill-opacity="1" fill-rule="nonzero"/><path fill="#09abc8" d="M 52.433594 15.226562 C 52.269531 15.125 52.097656 15.023438 51.929688 14.929688 L 51.253906 16.105469 C 51.414062 16.199219 51.578125 16.292969 51.734375 16.386719 Z M 52.433594 15.226562 " fill-opacity="1" fill-rule="nonzero"/><path fill="#09abc8" d="M 60.578125 25.078125 L 61.730469 24.359375 C 61.511719 24.007812 61.28125 23.664062 61.046875 23.324219 L 59.929688 24.09375 C 60.152344 24.414062 60.371094 24.746094 60.578125 25.078125 Z M 60.578125 25.078125 " fill-opacity="1" fill-rule="nonzero"/><path fill="#09abc8" d="M 61.613281 26.886719 L 62.816406 26.261719 C 62.625 25.894531 62.425781 25.53125 62.21875 25.175781 L 61.046875 25.855469 C 61.242188 26.191406 61.433594 26.539062 61.613281 26.886719 Z M 61.613281 26.886719 " fill-opacity="1" fill-rule="nonzero"/><path fill="#09abc8" d="M 59.402344 23.355469 L 60.496094 22.550781 C 60.25 22.21875 59.996094 21.890625 59.738281 21.570312 L 58.683594 22.425781 C 58.929688 22.730469 59.171875 23.042969 59.402344 23.355469 Z M 59.402344 23.355469 " fill-opacity="1" fill-rule="nonzero"/><path fill="#09abc8" d="M 62.5 28.773438 L 63.75 28.242188 C 63.589844 27.863281 63.421875 27.484375 63.242188 27.113281 L 62.015625 27.699219 C 62.183594 28.050781 62.347656 28.410156 62.5 28.773438 Z M 62.5 28.773438 " fill-opacity="1" fill-rule="nonzero"/><path fill="#09abc8" d="M 55.125 18.8125 L 56 17.769531 C 55.6875 17.507812 55.359375 17.246094 55.035156 16.996094 L 54.207031 18.074219 C 54.515625 18.3125 54.828125 18.558594 55.125 18.8125 Z M 55.125 18.8125 " fill-opacity="1" fill-rule="nonzero"/><path fill="#09abc8" d="M 56.667969 20.210938 L 57.621094 19.242188 C 57.328125 18.957031 57.023438 18.671875 56.71875 18.394531 L 55.808594 19.40625 C 56.101562 19.667969 56.390625 19.9375 56.667969 20.210938 Z M 56.667969 20.210938 " fill-opacity="1" fill-rule="nonzero"/><path fill="#09abc8" d="M 54.269531 16.429688 C 53.933594 16.191406 53.589844 15.953125 53.246094 15.730469 L 52.507812 16.871094 C 52.835938 17.085938 53.160156 17.308594 53.480469 17.535156 Z M 54.269531 16.429688 " fill-opacity="1" fill-rule="nonzero"/><path fill="#09abc8" d="M 58.097656 21.730469 L 59.121094 20.839844 C 58.851562 20.53125 58.570312 20.222656 58.289062 19.925781 L 57.304688 20.859375 C 57.574219 21.144531 57.839844 21.4375 58.097656 21.730469 Z M 58.097656 21.730469 " fill-opacity="1" fill-rule="nonzero"/><g fill="#2e2e2e" fill-opacity="1"><g transform="translate(36.872836, 73.854948)"><g><path d="M 0.203125 0 L 0.203125 -0.28125 L 0.984375 -0.28125 L 0.984375 -2.46875 L 0.9375 -2.46875 C 0.8125 -2.40625 0.703125 -2.359375 0.609375 -2.328125 C 0.515625 -2.296875 0.390625 -2.265625 0.234375 -2.234375 L 0.234375 -2.546875 C 0.390625 -2.578125 0.535156 -2.617188 0.671875 -2.671875 C 0.816406 -2.722656 0.945312 -2.785156 1.0625 -2.859375 L 1.3125 -2.859375 L 1.3125 -0.28125 L 2.015625 -0.28125 L 2.015625 0 Z M 0.203125 0 "/></g></g></g></svg>